<?xml version="1.0" encoding="UTF-8" standalone="no"?>
<svg
   xmlns:dc="http://purl.org/dc/elements/1.1/"
   xmlns:cc="http://creativecommons.org/ns#"
   xmlns:rdf="http://www.w3.org/1999/02/22-rdf-syntax-ns#"
   xmlns:svg="http://www.w3.org/2000/svg"
   xmlns="http://www.w3.org/2000/svg"
   xmlns:xlink="http://www.w3.org/1999/xlink"
   id="svg8"
   version="1.1"
   viewBox="0 0 512 512"
   height="507"
   width="512">
  <title
     id="title817">Podcast Index Social Mastodon Favicon</title>
  <defs
     id="defs2">
    <linearGradient
       gradientUnits="userSpaceOnUse"
       y2="65"
       x2="30.5"
       y1="0"
       x1="30.5"
       id="linearGradient1596">
      <stop
         id="stop1592"
         stop-color="#6364FF"
         style="stop-color:#f90000;stop-opacity:1" />
      <stop
         id="stop1594"
         stop-color="#563ACC"
         offset="1"
         style="stop-color:#cc3a3a;stop-opacity:1" />
    </linearGradient>
    <color-profile
       id="color-profile1023"
       xlink:href="/usr/share/color/icc/colord/sRGB.icc"
       name="sRGB" />
    <linearGradient
       xlink:href="#linearGradient1596"
       id="paint0_linear_89_8"
       x1="30.5"
       y1="0"
       x2="30.5"
       y2="65"
       gradientUnits="userSpaceOnUse">
      <stop
         style="stop-color:#f90000;stop-opacity:1"
         stop-color="#6364FF"
         id="stop846" />
      <stop
         style="stop-color:#cc3a3a;stop-opacity:1"
         offset="1"
         stop-color="#563ACC"
         id="stop848" />
    </linearGradient>
  </defs>
  <metadata
     id="metadata5">
    <rdf:RDF>
      <cc:Work
         rdf:about="">
        <dc:format>image/svg+xml</dc:format>
        <dc:type
           rdf:resource="http://purl.org/dc/dcmitype/StillImage" />
        <dc:title>Podcast Index Social Mastodon Favicon</dc:title>
        <dc:date>2023-03-08</dc:date>
        <dc:creator>
          <cc:Agent>
            <dc:title>Lionel Gettliffe-Rudling</dc:title>
          </cc:Agent>
        </dc:creator>
        <dc:rights>
          <cc:Agent>
            <dc:title />
          </cc:Agent>
        </dc:rights>
        <cc:license
           rdf:resource="http://creativecommons.org/publicdomain/zero/1.0/" />
      </cc:Work>
      <cc:License
         rdf:about="http://creativecommons.org/publicdomain/zero/1.0/">
        <cc:permits
           rdf:resource="http://creativecommons.org/ns#Reproduction" />
        <cc:permits
           rdf:resource="http://creativecommons.org/ns#Distribution" />
        <cc:permits
           rdf:resource="http://creativecommons.org/ns#DerivativeWorks" />
      </cc:License>
    </rdf:RDF>
  </metadata>
  <g
     transform="translate(0,-162.85622)"
     id="layer1">
    <g
       transform="matrix(8.029028,0,0,7.9546092,10.674653,157.80691)"
       id="g864"
       style="display:inline;fill:none">
      <path
         style="fill:#000000;fill-opacity:1"
         d="M 60.7539,14.3904 C 59.8143,7.40642 53.7273,1.90257 46.5117,0.836066 45.2943,0.655854 40.6819,0 29.9973,0 H 29.9175 C 19.2299,0 16.937,0.655854 15.7196,0.836066 8.70488,1.87302 2.29885,6.81852 0.744617,13.8852 -0.00294988,17.3654 -0.0827298,21.2237 0.0561464,24.7629 0.254119,29.8384 0.292531,34.905 0.753482,39.9598 c 0.318668,3.3577 0.874578,6.6886 1.663558,9.9678 1.47741,6.0563 7.45795,11.0963 13.31736,13.1525 6.2733,2.1443 13.0198,2.5003 19.484,1.0281 0.7111,-0.1654 1.4134,-0.3574 2.1068,-0.5761 1.5719,-0.4992 3.4128,-1.0576 4.7661,-2.0384 0.0186,-0.0138 0.0338,-0.0316 0.0445,-0.052 0.0108,-0.0205 0.0168,-0.0431 0.0176,-0.0662 v -4.8982 c -4e-4,-0.0216 -0.0055,-0.0428 -0.0151,-0.0622 -0.0096,-0.0193 -0.0234,-0.0363 -0.0404,-0.0496 -0.017,-0.0133 -0.0368,-0.0226 -0.0579,-0.0273 -0.021,-0.0047 -0.0429,-0.0046 -0.0639,2e-4 -4.1416,0.9892 -8.3856,1.485 -12.6437,1.4772 -7.3279,0 -9.2988,-3.4772 -9.8631,-4.9248 -0.4537,-1.2511 -0.7418,-2.5562 -0.8569,-3.882 -0.0012,-0.0222 0.0029,-0.0445 0.0119,-0.0649 0.009,-0.0203 0.0227,-0.0383 0.04,-0.0524 0.0173,-0.0141 0.0376,-0.024 0.0594,-0.0287 0.0218,-0.0048 0.0444,-0.0043 0.066,0.0013 4.0725,0.9824 8.2473,1.4782 12.4368,1.4771 1.0075,0 2.0122,0 3.0198,-0.0266 4.2135,-0.1182 8.6546,-0.3338 12.8002,-1.1433 0.1034,-0.0207 0.2069,-0.0384 0.2955,-0.065 6.539,-1.2556 12.7618,-5.1966 13.3942,-15.1762 0.0236,-0.3929 0.0827,-4.1153 0.0827,-4.523 0.0029,-1.3856 0.4462,-9.829 -0.065,-15.0167 z"
         id="path842" />
    </g>
    <g
       style="display:inline;fill:none"
       id="g1590"
       transform="matrix(8.029028,0,0,7.9546092,10.674653,157.80691)">
      <path
         id="path1588"
         d="M 60.7539,14.3904 C 59.8143,7.40642 53.7273,1.90257 46.5117,0.836066 45.2943,0.655854 40.6819,0 29.9973,0 H 29.9175 C 19.2299,0 16.937,0.655854 15.7196,0.836066 8.70488,1.87302 2.29885,6.81852 0.744617,13.8852 -0.00294988,17.3654 -0.0827298,21.2237 0.0561464,24.7629 0.254119,29.8384 0.292531,34.905 0.753482,39.9598 c 0.318668,3.3577 0.874578,6.6886 1.663558,9.9678 1.47741,6.0563 7.45795,11.0963 13.31736,13.1525 6.2733,2.1443 13.0198,2.5003 19.484,1.0281 0.7111,-0.1654 1.4134,-0.3574 2.1068,-0.5761 1.5719,-0.4992 3.4128,-1.0576 4.7661,-2.0384 0.0186,-0.0138 0.0338,-0.0316 0.0445,-0.052 0.0108,-0.0205 0.0168,-0.0431 0.0176,-0.0662 v -4.8982 c -4e-4,-0.0216 -0.0055,-0.0428 -0.0151,-0.0622 -0.0096,-0.0193 -0.0234,-0.0363 -0.0404,-0.0496 -0.017,-0.0133 -0.0368,-0.0226 -0.0579,-0.0273 -0.021,-0.0047 -0.0429,-0.0046 -0.0639,2e-4 -4.1416,0.9892 -8.3856,1.485 -12.6437,1.4772 -7.3279,0 -9.2988,-3.4772 -9.8631,-4.9248 -0.4537,-1.2511 -0.7418,-2.5562 -0.8569,-3.882 -0.0012,-0.0222 0.0029,-0.0445 0.0119,-0.0649 0.009,-0.0203 0.0227,-0.0383 0.04,-0.0524 0.0173,-0.0141 0.0376,-0.024 0.0594,-0.0287 0.0218,-0.0048 0.0444,-0.0043 0.066,0.0013 4.0725,0.9824 8.2473,1.4782 12.4368,1.4771 1.0075,0 2.0122,0 3.0198,-0.0266 4.2135,-0.1182 8.6546,-0.3338 12.8002,-1.1433 0.1034,-0.0207 0.2069,-0.0384 0.2955,-0.065 6.539,-1.2556 12.7618,-5.1966 13.3942,-15.1762 0.0236,-0.3929 0.0827,-4.1153 0.0827,-4.523 0.0029,-1.3856 0.4462,-9.829 -0.065,-15.0167 z"
         style="fill:url(#paint0_linear_89_8)" />
    </g>
  </g>
  <g
     id="layer2">
    <g
       style="fill:#ffffff;fill-rule:evenodd;stroke:none;stroke-width:1"
       transform="matrix(8.3125397,0,0,8.3125397,97.599892,21.648537)"
       id="g826">
      <g
         style="fill:#ffffff"
         transform="translate(-23,-16)"
         id="g824">
        <g
           style="fill:#ffffff"
           transform="translate(23,16)"
           id="g822">
          <path
             style="fill:#ffffff"
             d="m 19.793565,16 h 1.350259 c 0.828427,0 1.5,0.671573 1.5,1.5 0,0.105828 -0.0112,0.21136 -0.03341,0.314831 L 17.418605,42 H 13 L 18.326976,17.185169 C 18.475388,16.493819 19.086464,16 19.793565,16 Z"
             id="Rectangle" />
          <path
             style="fill:#ffffff"
             d="M 11.108492,22.22872 C 6.355958,17.755948 6.7537472,10.81901 11.129428,6.7810902 c 0.837451,-0.7661693 2.177373,-0.7247548 2.931079,0.1242436 0.795578,0.8282912 0.732769,2.1328497 -0.104682,2.9197263 -2.658906,2.4641659 -2.910142,6.6470359 0.02094,9.4011039 0.837451,0.786877 0.879323,2.091436 0.08374,2.919727 -0.795579,0.828291 -2.114564,0.869705 -2.952015,0.08283 z M 9.64195,25.27269 c 1.046814,0.621218 1.256176,1.863655 0.418725,2.899019 C 9.64195,28.792927 9.0138617,29 8.3857735,29 7.967048,29 7.5483226,28.792927 7.1295971,28.585854 2.9423423,25.479763 0.22062675,20.09587 0.01126401,14.504905 -0.19809873,8.7068671 2.5236169,3.944193 7.1295971,0.42395566 7.967048,-0.19726269 9.4325872,-0.19726269 10.060675,0.83810123 10.688764,1.6663924 10.688764,3.1159019 9.64195,3.7371202 6.0827834,6.4290664 4.1985188,10.156377 4.1985188,14.504905 c 0,4.141456 2.0936273,8.489984 5.4434312,10.767785 z m 17.291035,-3.126799 c -0.795579,-0.828291 -0.753706,-2.13285 0.06281,-2.940434 2.931078,-2.754068 2.700779,-6.936938 0.02094,-9.4011042 -0.837451,-0.7661693 -0.90026,-2.0914351 -0.104682,-2.9197262 0.774643,-0.8282912 2.114564,-0.890413 2.952015,-0.1035364 4.375681,4.0379198 4.773471,10.9748578 0.02094,15.4476298 -0.837451,0.786876 -2.156436,0.745462 -2.952014,-0.08283 z M 33.872416,0.42395566 c 4.60598,3.52023734 7.306759,8.28291144 7.118333,14.08094934 0,5.590965 -2.721716,10.974858 -7.118333,14.080949 C 33.45369,28.792927 33.034965,29 32.61624,29 c -0.628089,0 -1.256177,-0.207073 -1.674902,-0.828291 -0.837451,-1.035364 -0.628088,-2.277801 0.418725,-2.899019 3.349804,-2.277801 5.443431,-6.626329 5.443431,-10.767785 0,-4.348528 -1.884264,-8.0758386 -5.443431,-10.7677848 C 30.31325,3.1159019 30.31325,1.6663924 30.941338,0.83810123 c 0.628088,-1.03536392 2.093627,-1.03536392 2.931078,-0.41414557 z"
             id="Shape" />
          <circle
             style="fill:#ffffff"
             id="Oval"
             cx="20.5"
             cy="14.5"
             r="4.5" />
        </g>
      </g>
    </g>
  </g>
</svg>
